name Run_500 03_newCOP3_v24.mot
datacolumns 19
datarows 95
range 1.397 1.491
DataType=double
version=3
OpenSimVersion=4.3-2021-08-27-4bc7ad9
endheader
time	R_ground_force_vx	R_ground_force_vy	R_ground_force_vz	R_ground_force_px	R_ground_force_py	R_ground_force_pz	L_ground_force_vx	L_ground_force_vy	L_ground_force_vz	L_ground_force_px	L_ground_force_py	L_ground_force_pz	R_ground_torque_x	R_ground_torque_y	R_ground_torque_z	L_ground_torque_x	L_ground_torque_y	L_ground_torque_z
1.397	0	0	0	0	0	0	-123.620811	2197.934326	87.494049	0.705357	0	-0.407642	0	0	0	0	-13.834664	0
1.398	0	0	0	0	0	0	-112.670746	2198.925781	88.035904	0.701018	0	-0.407974	0	0	0	0	-13.903443	0
1.399	0	0	0	0	0	0	-101.548103	2198.922852	88.301918	0.69664	0	-0.408328	0	0	0	0	-13.963003	0
1.4	0	0	0	0	0	0	-90.280106	2197.953857	88.311897	0.692227	0	-0.408699	0	0	0	0	-14.012627	0
1.401	0	0	0	0	0	0	-78.894341	2196.051025	88.089218	0.687784	0	-0.40908	0	0	0	0	-14.051626	0
1.402	0	0	0	0	0	0	-67.41892199999999	2193.249268	87.660156	0.683315	0	-0.409466	0	0	0	0	-14.079349	0
1.403	0	0	0	0	0	0	-55.882679	2189.584229	87.053078	0.678827	0	-0.409849	0	0	0	0	-14.095174	0
1.404	0	0	0	0	0	0	-44.315132	2185.092773	86.297691	0.674325	0	-0.410224	0	0	0	0	-14.098518	0
1.405	0	0	0	0	0	0	-32.746384	2179.80957	85.42424800000001	0.669816	0	-0.410584	0	0	0	0	-14.088836	0
1.406	0	0	0	0	0	0	-21.206848	2173.768799	84.46275300000001	0.665308	0	-0.410924	0	0	0	0	-14.065617	0
1.407	0	0	0	0	0	0	-9.726756999999999	2167.000977	83.442261	0.660808	0	-0.411238	0	0	0	0	-14.028389	0
1.408	0	0	0	0	0	0	1.664398	2159.533936	82.39015999999999	0.656323	0	-0.411521	0	0	0	0	-13.97672	0
1.409	0	0	0	0	0	0	12.938582	2151.391846	81.331558	0.651858	0	-0.41177	0	0	0	0	-13.910213	0
1.41	0	0	0	0	0	0	24.069958	2142.594238	80.28872699999999	0.6474220000000001	0	-0.41198	0	0	0	0	-13.828513	0
1.411	0	0	0	0	0	0	35.035618	2133.156494	79.280663	0.643019	0	-0.412149	0	0	0	0	-13.7313	0
1.412	0	0	0	0	0	0	45.816261	2123.089844	78.322701	0.6386540000000001	0	-0.412274	0	0	0	0	-13.618296	0
1.413	0	0	0	0	0	0	56.396721	2112.401123	77.42626199999999	0.634332	0	-0.412355	0	0	0	0	-13.489258	0
1.414	0	0	0	0	0	0	66.76635	2101.092285	76.598709	0.630054	0	-0.41239	0	0	0	0	-13.343987	0
1.415	0	0	0	0	0	0	76.919151	2089.161865	75.84329200000001	0.625821	0	-0.41238	0	0	0	0	-13.182323	0
1.416	0	0	0	0	0	0	86.853714	2076.604248	75.15920300000001	0.621635	0	-0.412325	0	0	0	0	-13.004148	0
1.417	0	0	0	0	0	0	96.57289900000001	2063.4104	74.54173299999999	0.617492	0	-0.412228	0	0	0	0	-12.809383	0
1.418	0	0	0	0	0	0	106.083313	2049.568604	73.98252100000001	0.613392	0	-0.412091	0	0	0	0	-12.598	0
1.419	0	0	0	0	0	0	115.394592	2035.063599	73.469902	0.60933	0	-0.411916	0	0	0	0	-12.370008	0
1.42	0	0	0	0	0	0	124.518562	2019.878662	72.98931899999999	0.605301	0	-0.411709	0	0	0	0	-12.125466	0
1.421	0	0	0	0	0	0	133.468277	2003.994995	72.52377300000001	0.601299	0	-0.411471	0	0	0	0	-11.864484	0
1.422	0	0	0	0	0	0	142.257095	1987.392944	72.05435900000001	0.597317	0	-0.41121	0	0	0	0	-11.587216	0
1.423	0	0	0	0	0	0	150.897659	1970.052124	71.56083700000001	0.593349	0	-0.410928	0	0	0	0	-11.293873	0
1.424	0	0	0	0	0	0	159.401123	1951.952148	71.022209	0.589386	0	-0.410632	0	0	0	0	-10.984715	0
1.425	0	0	0	0	0	0	167.776398	1933.073364	70.417282	0.585422	0	-0.410327	0	0	0	0	-10.66006	0
1.426	0	0	0	0	0	0	176.029602	1913.397095	69.72528800000001	0.581448	0	-0.410018	0	0	0	0	-10.320279	0
1.427	0	0	0	0	0	0	184.163605	1892.906616	68.926407	0.577456	0	-0.409711	0	0	0	0	-9.965802999999999	0
1.428	0	0	0	0	0	0	192.177887	1871.587769	68.002319	0.5734399999999999	0	-0.40941	0	0	0	0	-9.597118	0
1.429	0	0	0	0	0	0	200.068512	1849.428711	66.93667600000001	0.569393	0	-0.409121	0	0	0	0	-9.214772	0
1.43	0	0	0	0	0	0	207.828125	1826.421265	65.715515	0.565309	0	-0.408848	0	0	0	0	-8.819369	0
1.431	0	0	0	0	0	0	215.446304	1802.560669	64.327629	0.561182	0	-0.408596	0	0	0	0	-8.411574	0
1.432	0	0	0	0	0	0	222.909729	1777.846436	62.764862	0.5570079999999999	0	-0.408368	0	0	0	0	-7.992109	0
1.433	0	0	0	0	0	0	230.202591	1752.28186	61.022305	0.552782	0	-0.408168	0	0	0	0	-7.561751	0
1.434	0	0	0	0	0	0	237.306885	1725.874756	59.098431	0.548502	0	-0.407998	0	0	0	0	-7.121337	0
1.435	0	0	0	0	0	0	244.202759	1698.637695	56.995159	0.544166	0	-0.407861	0	0	0	0	-6.671752	0
1.436	0	0	0	0	0	0	250.868744	1670.58728	54.717823	0.539772	0	-0.407758	0	0	0	0	-6.213935	0
1.437	0	0	0	0	0	0	257.282104	1641.744873	52.275059	0.53532	0	-0.40769	0	0	0	0	-5.748871	0
1.438	0	0	0	0	0	0	263.418884	1612.136108	49.678631	0.530812	0	-0.407657	0	0	0	0	-5.277588	0
1.439	0	0	0	0	0	0	269.254333	1581.790894	46.943188	0.526247	0	-0.407661	0	0	0	0	-4.801154	0
1.44	0	0	0	0	0	0	274.76297	1550.743042	44.085976	0.521629	0	-0.407698	0	0	0	0	-4.320673	0
1.441	0	0	0	0	0	0	279.918762	1519.030273	41.12645	0.516961	0	-0.40777	0	0	0	0	-3.837275	0
1.442	0	0	0	0	0	0	284.695587	1486.693726	38.085915	0.512246	0	-0.407872	0	0	0	0	-3.352118	0
1.443	0	0	0	0	0	0	289.067444	1453.777954	34.987083	0.50749	0	-0.408004	0	0	0	0	-2.866377	0
1.444	0	0	0	0	0	0	293.008881	1420.3302	31.853613	0.5026969999999999	0	-0.408161	0	0	0	0	-2.381239	0
1.445	0	0	0	0	0	0	296.495422	1386.400391	28.709673	0.497874	0	-0.408341	0	0	0	0	-1.897897	0
1.446	0	0	0	0	0	0	299.504028	1352.040894	25.57947	0.493027	0	-0.408539	0	0	0	0	-1.417546	0
1.447	0	0	0	0	0	0	302.013641	1317.305908	22.486794	0.488163	0	-0.408751	0	0	0	0	-0.941372	0
1.448	0	0	0	0	0	0	304.005737	1282.251221	19.454601	0.483291	0	-0.408973	0	0	0	0	-0.470548	0
1.449	0	0	0	0	0	0	305.464508	1246.934204	16.504593	0.47842	0	-0.409198	0	0	0	0	-0.00623	0
1.45	0	0	0	0	0	0	306.377533	1211.412964	13.656864	0.473558	0	-0.409423	0	0	0	-0	0.450453	-0
1.451	0	0	0	0	0	0	306.735901	1175.746338	10.929566	0.468715	0	-0.40964	0	0	0	-0	0.898404	-0
1.452	0	0	0	0	0	0	306.534332	1139.99353	8.338635999999999	0.463901	0	-0.409845	0	0	0	-0	1.336563	-0
1.453	0	0	0	0	0	0	305.771301	1104.213989	5.897573	0.459129	0	-0.410032	0	0	0	-0	1.76391	-0
1.454	0	0	0	0	0	0	304.448944	1068.466431	3.617265	0.454409	0	-0.410194	0	0	0	-0	2.179476	-0
1.455	0	0	0	0	0	0	302.572845	1032.809204	1.505889	0.449755	0	-0.410327	0	0	0	-0	2.582343	-0
1.456	0	0	0	0	0	0	300.151733	997.2991940000001	-0.431147	0.445178	0	-0.410425	0	0	0	-0	2.971648	-0
1.457	0	0	0	0	0	0	297.197235	961.9921880000001	-2.19119	0.440693	0	-0.410483	0	0	0	-0	3.346589	-0
1.458	0	0	0	0	0	0	293.723358	926.9422	-3.77428	0.436313	0	-0.410496	0	0	0	-0	3.706428	-0
1.459	0	0	0	0	0	0	289.746155	892.2008059999999	-5.183033	0.432053	0	-0.410462	0	0	0	-0	4.050491	-0
1.46	0	0	0	0	0	0	285.283417	857.817444	-6.422468	0.427927	0	-0.410377	0	0	0	-0	4.378171	-0
1.461	0	0	0	0	0	0	280.354218	823.838623	-7.4998	0.423951	0	-0.410239	0	0	0	-0	4.688932	-0
1.462	0	0	0	0	0	0	274.978882	790.307983	-8.424187999999999	0.420139	0	-0.410048	0	0	0	-0	4.982308	-0
1.463	0	0	0	0	0	0	269.178711	757.26593	-9.206450999999999	0.416505	0	-0.409803	0	0	0	-0	5.257902	-0
1.464	0	0	0	0	0	0	262.975861	724.749695	-9.858768	0.413064	0	-0.409507	0	0	0	-0	5.515388	-0
1.465	0	0	0	0	0	0	256.393555	692.792908	-10.394346	0.409828	0	-0.409162	0	0	0	-0	5.754511	-0
1.466	0	0	0	0	0	0	249.456161	661.426147	-10.827099	0.406809	0	-0.408772	0	0	0	-0	5.975083	-0
1.467	0	0	0	0	0	0	242.189178	630.676453	-11.171303	0.404019	0	-0.408344	0	0	0	-0	6.176987	-0
1.468	0	0	0	0	0	0	234.619644	600.567749	-11.44128	0.401464	0	-0.407884	0	0	0	-0	6.360169	-0
1.469	0	0	0	0	0	0	226.776184	571.120911	-11.651079	0.399151	0	-0.407401	0	0	0	-0	6.524641	-0
1.47	0	0	0	0	0	0	218.689178	542.354187	-11.814182	0.397083	0	-0.406906	0	0	0	-0	6.670474	-0
1.471	0	0	0	0	0	0	210.3909	514.28302	-11.943241	0.395259	0	-0.406408	0	0	0	-0	6.797801	-0
1.472	0	0	0	0	0	0	201.915436	486.920898	-12.049837	0.393676	0	-0.405922	0	0	0	-0	6.906809	-0
1.473	0	0	0	0	0	0	193.298676	460.279266	-12.144282	0.392325	0	-0.40546	0	0	0	-0	6.997741	-0
1.474	0	0	0	0	0	0	184.578049	434.368164	-12.235457	0.391193	0	-0.405038	0	0	0	-0	7.070889	-0
1.475	0	0	0	0	0	0	175.792282	409.196381	-12.330689	0.39026	0	-0.404671	0	0	0	-0	7.126593	-0
1.476	0	0	0	0	0	0	166.981018	384.772003	-12.435674	0.389503	0	-0.404374	0	0	0	-0	7.165237	-0
1.477	0	0	0	0	0	0	158.184311	361.102661	-12.554435	0.38889	0	-0.404167	0	0	0	-0	7.187247	-0
1.478	0	0	0	0	0	0	149.442169	338.19577	-12.689331	0.388386	0	-0.404065	0	0	0	-0	7.193086	-0
1.479	0	0	0	0	0	0	140.793961	316.059052	-12.841101	0.387949	0	-0.404087	0	0	0	-0	7.183254	-0
1.48	0	0	0	0	0	0	132.277863	294.700439	-13.008936	0.387528	0	-0.404252	0	0	0	-0	7.158283	-0
1.481	0	0	0	0	0	0	123.930344	274.128418	-13.190603	0.38707	0	-0.404577	0	0	0	-0	7.118733	-0
1.482	0	0	0	0	0	0	115.785553	254.351959	-13.382579	0.386516	0	-0.40508	0	0	0	-0	7.065194	-0
1.483	0	0	0	0	0	0	107.874931	235.380539	-13.580223	0.385801	0	-0.405781	0	0	0	-0	6.998275	-0
1.484	0	0	0	0	0	0	100.226746	217.223953	-13.777965	0.384856	0	-0.406695	0	0	0	-0	6.918612	-0
1.485	0	0	0	0	0	0	92.865784	199.892014	-13.969501	0.38361	0	-0.40784	0	0	0	-0	6.826858	-0
1.486	0	0	0	0	0	0	85.813087	183.394257	-14.148017	0.38199	0	-0.409231	0	0	0	-0	6.72368	-0
1.487	0	0	0	0	0	0	79.085823	167.739487	-14.306396	0.379923	0	-0.410879	0	0	0	-0	6.609764	-0
1.488	0	0	0	0	0	0	72.697182	152.935257	-14.437438	0.377336	0	-0.412795	0	0	0	-0	6.485806	-0
1.489	0	0	0	0	0	0	66.656441	138.987411	-14.534072	0.374163	0	-0.414982	0	0	0	-0	6.352511	-0
1.49	0	0	0	0	0	0	60.969048	125.899429	-14.58956	0.370345	0	-0.41744	0	0	0	-0	6.210595	-0
1.491	0	0	0	0	0	0	55.636806	113.671997	-14.597677	0.365835	0	-0.420156	0	0	0	-0	6.060778	-0
